<?xml version="1.0" encoding="utf-8"?>
<!-- Generator: Adobe Illustrator 23.0.3, SVG Export Plug-In . SVG Version: 6.00 Build 0)  -->
<svg version="1.1" id="Layer_1" xmlns="http://www.w3.org/2000/svg" xmlns:xlink="http://www.w3.org/1999/xlink" x="0px" y="0px"
	 viewBox="0 0 30 30" style="enable-background:new 0 0 30 30;" xml:space="preserve">
<style type="text/css">
	.st0{fill:#FFFFFF;stroke:#CECACA;stroke-width:0.5;stroke-miterlimit:10;}
	.st1{fill:#3CA550;stroke:#757575;stroke-width:0.5;stroke-miterlimit:10;}
	.st2{fill:#FFFFFF;stroke:#000000;stroke-linecap:round;stroke-linejoin:round;stroke-miterlimit:10;}
	.st3{fill:none;stroke:#000000;stroke-linecap:round;stroke-linejoin:round;stroke-miterlimit:10;}
	.st4{fill:none;stroke:#000000;stroke-linecap:round;stroke-miterlimit:10;}
</style>
<circle class="st0" cx="15.2" cy="15.2" r="14"/>
<circle class="st1" cx="15" cy="15" r="14"/>
<g>
	<g>
		<circle class="st2" cx="14.7" cy="6.4" r="2"/>
		<line class="st3" x1="14.7" y1="8.4" x2="14.7" y2="12.8"/>
		<line class="st3" x1="14.7" y1="12.8" x2="16.6" y2="14.7"/>
	</g>
	<g>
		<circle class="st2" cx="9.2" cy="11.9" r="2"/>
		<line class="st3" x1="9.2" y1="13.9" x2="9.2" y2="18.3"/>
		<line class="st3" x1="9.2" y1="18.3" x2="7.3" y2="20.3"/>
	</g>
	<circle class="st2" cx="13" cy="17.2" r="2"/>
	<line class="st3" x1="13" y1="19.1" x2="13" y2="27"/>
	<g>
		<circle class="st2" cx="20.8" cy="10.8" r="2"/>
		<line class="st3" x1="20.8" y1="12.8" x2="20.8" y2="17.2"/>
		<line class="st3" x1="20.8" y1="17.2" x2="18.9" y2="19.1"/>
	</g>
	<line class="st3" x1="18.9" y1="19.1" x2="18.9" y2="22.3"/>
	<line class="st3" x1="16.6" y1="14.7" x2="16.6" y2="20.4"/>
	<line class="st3" x1="7.3" y1="20.3" x2="9" y2="22"/>
	<line class="st3" x1="18.9" y1="22.3" x2="16.7" y2="24.4"/>
	<line class="st3" x1="9" y1="22" x2="11" y2="23.9"/>
	<line class="st3" x1="11" y1="23.9" x2="11" y2="26.3"/>
	<line class="st3" x1="16.7" y1="24.4" x2="16.7" y2="26.3"/>
	<polyline class="st4" points="14.7,27 14.7,22.6 14.7,22.3 16.6,20.4 	"/>
</g>
</svg>
