<?xml version="1.0" encoding="utf-8"?>
<!-- Generator: Adobe Illustrator 23.0.3, SVG Export Plug-In . SVG Version: 6.00 Build 0)  -->
<svg version="1.1" id="Layer_1" xmlns="http://www.w3.org/2000/svg" xmlns:xlink="http://www.w3.org/1999/xlink" x="0px" y="0px"
	 viewBox="0 0 1277.9 555" style="enable-background:new 0 0 1277.9 555;" xml:space="preserve">
<style type="text/css">
	.st0{opacity:0.39;}
	.st1{fill:#FFFFFF;}
	.st2{fill:#CECACA;}
	.st3{fill:#49C949;stroke:#757575;stroke-width:3;stroke-miterlimit:10;}
	.st4{fill:#757575;stroke:#757575;stroke-width:3;stroke-miterlimit:10;}
</style>
<g id="Layer_1_1_" class="st0">
</g>
<g>
	<g>
		<g>
			<g>
				<circle class="st1" cx="326.9" cy="208.5" r="84.5"/>
				<path class="st2" d="M326.9,294.6c-47.4,0-86-38.6-86-86s38.6-86,86-86s86,38.6,86,86S374.3,294.6,326.9,294.6z M326.9,125.5
					c-45.8,0-83,37.2-83,83s37.2,83,83,83s83-37.2,83-83S372.7,125.5,326.9,125.5z"/>
			</g>
			<g>
				<circle class="st3" cx="325.7" cy="207.3" r="84.5"/>
				<path class="st4" d="M325.7,293.4c-47.4,0-86-38.6-86-86s38.6-86,86-86s86,38.6,86,86S373.1,293.4,325.7,293.4z M325.7,124.3
					c-45.8,0-83,37.2-83,83s37.2,83,83,83s83-37.2,83-83S371.5,124.3,325.7,124.3z"/>
			</g>
			<g>
				<g>
					<g>
						<circle class="st1" cx="323.9" cy="155.4" r="12.1"/>
						<path d="M323.9,170.5c-8.3,0-15.1-6.8-15.1-15.1s6.8-15.1,15.1-15.1c8.3,0,15.1,6.8,15.1,15.1S332.2,170.5,323.9,170.5z
							 M323.9,146.4c-5,0-9.1,4.1-9.1,9.1s4.1,9.1,9.1,9.1s9.1-4.1,9.1-9.1C332.9,150.4,328.9,146.4,323.9,146.4z"/>
					</g>
					<path d="M323.9,197.1c-1.7,0-3-1.4-3-3v-26.6c0-1.7,1.4-3,3-3c1.7,0,3,1.4,3,3v26.6C326.9,195.7,325.6,197.1,323.9,197.1z"/>
					<path d="M335.4,208.5c-0.8,0-1.5-0.3-2.1-0.9l-11.5-11.5c-1.2-1.2-1.2-3.1,0-4.3s3.1-1.2,4.3,0l11.5,11.5
						c1.2,1.2,1.2,3.1,0,4.3C336.9,208.2,336.1,208.5,335.4,208.5z"/>
				</g>
				<g>
					<g>
						<circle class="st1" cx="290.7" cy="188.6" r="12.1"/>
						<path d="M290.7,203.7c-8.3,0-15.1-6.8-15.1-15.1s6.8-15.1,15.1-15.1c8.3,0,15.1,6.8,15.1,15.1
							C305.8,196.9,299,203.7,290.7,203.7z M290.7,179.6c-5,0-9.1,4.1-9.1,9.1s4.1,9.1,9.1,9.1s9.1-4.1,9.1-9.1
							C299.7,183.6,295.7,179.6,290.7,179.6z"/>
					</g>
					<path d="M290.7,230.3c-1.7,0-3-1.4-3-3v-26.6c0-1.7,1.4-3,3-3c1.7,0,3,1.4,3,3v26.6C293.7,228.9,292.4,230.3,290.7,230.3z"/>
					<path d="M279.2,242.3c-0.7,0-1.5-0.3-2.1-0.8c-1.2-1.1-1.3-3.1-0.1-4.3l11.5-12.1c1.1-1.2,3.1-1.3,4.3-0.1
						c1.2,1.1,1.3,3.1,0.1,4.3l-11.5,12.1C280.8,242,280,242.3,279.2,242.3z"/>
				</g>
				<g>
					<circle class="st1" cx="313.6" cy="220.6" r="12.1"/>
					<path d="M313.6,235.7c-8.3,0-15.1-6.8-15.1-15.1s6.8-15.1,15.1-15.1c8.3,0,15.1,6.8,15.1,15.1S321.9,235.7,313.6,235.7z
						 M313.6,211.6c-5,0-9.1,4.1-9.1,9.1s4.1,9.1,9.1,9.1s9.1-4.1,9.1-9.1C322.7,215.6,318.6,211.6,313.6,211.6z"/>
				</g>
				<path d="M313.6,282.8c-1.7,0-3-1.4-3-3v-47.7c0-1.7,1.4-3,3-3c1.7,0,3,1.4,3,3v47.7C316.6,281.4,315.3,282.8,313.6,282.8z"/>
				<g>
					<g>
						<circle class="st1" cx="360.7" cy="182" r="12.1"/>
						<path d="M360.7,197.1c-8.3,0-15.1-6.8-15.1-15.1s6.8-15.1,15.1-15.1s15.1,6.8,15.1,15.1C375.8,190.3,369,197.1,360.7,197.1z
							 M360.7,172.9c-5,0-9.1,4.1-9.1,9.1s4.1,9.1,9.1,9.1s9.1-4.1,9.1-9.1C369.8,177,365.7,172.9,360.7,172.9z"/>
					</g>
					<path d="M360.7,223.6c-1.7,0-3-1.4-3-3V194c0-1.7,1.4-3,3-3c1.7,0,3,1.4,3,3v26.6C363.7,222.3,362.4,223.6,360.7,223.6z"/>
					<path d="M349.2,235.1c-0.8,0-1.5-0.3-2.1-0.9c-1.2-1.2-1.2-3.1,0-4.3l11.5-11.5c1.2-1.2,3.1-1.2,4.3,0c1.2,1.2,1.2,3.1,0,4.3
						l-11.5,11.5C350.8,234.8,350,235.1,349.2,235.1z"/>
				</g>
				<path d="M349.2,254.4c-1.7,0-3-1.4-3-3v-19.3c0-1.7,1.4-3,3-3c1.7,0,3,1.4,3,3v19.3C352.3,253.1,350.9,254.4,349.2,254.4z"/>
				<path d="M335.4,243c-1.7,0-3-1.4-3-3v-34.4c0-1.7,1.4-3,3-3c1.7,0,3,1.4,3,3V240C338.4,241.6,337,243,335.4,243z"/>
				<path d="M289.5,252.6c-0.8,0-1.5-0.3-2.1-0.9l-10.3-10.3c-1.2-1.2-1.2-3.1,0-4.3s3.1-1.2,4.3,0l10.3,10.3c1.2,1.2,1.2,3.1,0,4.3
					C291,252.3,290.2,252.6,289.5,252.6z"/>
				<path d="M336,267.1c-0.8,0-1.6-0.3-2.2-0.9c-1.1-1.2-1.1-3.1,0.1-4.3l13.3-12.7c1.2-1.1,3.1-1.1,4.3,0.1
					c1.1,1.2,1.1,3.1-0.1,4.3L338,266.3C337.5,266.8,336.7,267.1,336,267.1z"/>
				<path d="M301.5,264.1c-0.7,0-1.5-0.3-2.1-0.8l-12.1-11.5c-1.2-1.1-1.3-3.1-0.1-4.3c1.1-1.2,3.1-1.3,4.3-0.1l12.1,11.5
					c1.2,1.1,1.3,3.1,0.1,4.3C303.1,263.8,302.3,264.1,301.5,264.1z"/>
				<path d="M301.5,278.6c-1.7,0-3-1.4-3-3v-14.5c0-1.7,1.4-3,3-3c1.7,0,3,1.4,3,3v14.5C304.6,277.2,303.2,278.6,301.5,278.6z"/>
				<path d="M336,278.6c-1.7,0-3-1.4-3-3v-11.5c0-1.7,1.4-3,3-3c1.7,0,3,1.4,3,3v11.5C339,277.2,337.6,278.6,336,278.6z"/>
				<path d="M323.9,282.8c-1.7,0-3-1.4-3-3v-29.6l12.4-12.4c1.2-1.2,3.1-1.2,4.3,0c1.2,1.2,1.2,3.1,0,4.3L327,252.7v27.1
					C326.9,281.4,325.6,282.8,323.9,282.8z"/>
			</g>
		</g>
		<path d="M499.2,230.6l-10.4,31.6h-13.4l34.1-100.4h15.6l34.3,100.4h-13.9l-10.7-31.6H499.2z M532.1,220.4l-9.8-28.9
			c-2.2-6.6-3.7-12.5-5.2-18.3h-0.3c-1.5,6-3.1,12.1-5.1,18.2l-9.8,29.1h30.2V220.4z"/>
		<path d="M573.2,209.6c0-7.5-0.1-13.6-0.6-19.5h11.6L585,202h0.3c3.6-6.9,11.9-13.6,23.8-13.6c10,0,25.5,6,25.5,30.7v43.1h-13.1
			v-41.6c0-11.6-4.3-21.3-16.7-21.3c-8.6,0-15.3,6.1-17.6,13.4c-0.6,1.6-0.9,3.9-0.9,6.1v43.4h-13.1V209.6z"/>
		<path d="M718.2,156.4v87.2c0,6.4,0.1,13.7,0.6,18.6H707l-0.6-12.5h-0.3c-4,8-12.8,14.2-24.6,14.2c-17.4,0-30.8-14.8-30.8-36.7
			c-0.1-24,14.8-38.7,32.3-38.7c11,0,18.5,5.2,21.8,11h0.3v-43.1H718.2z M705.1,219.4c0-1.6-0.1-3.9-0.6-5.5
			c-1.9-8.3-9.1-15.2-18.9-15.2c-13.6,0-21.6,11.9-21.6,27.9c0,14.6,7.2,26.7,21.3,26.7c8.8,0,16.8-5.8,19.2-15.6
			c0.4-1.8,0.6-3.6,0.6-5.7V219.4z"/>
		<path d="M739.9,212.6c0-8.5-0.1-15.8-0.6-22.5h11.5l0.4,14.2h0.6c3.3-9.7,11.2-15.8,20-15.8c1.5,0,2.5,0.1,3.7,0.4v12.4
			c-1.3-0.3-2.7-0.4-4.5-0.4c-9.2,0-15.8,7-17.6,16.8c-0.3,1.8-0.6,3.9-0.6,6.1v38.4h-13L739.9,212.6L739.9,212.6z"/>
		<path d="M794.5,228.5c0.3,17.7,11.6,25,24.7,25c9.4,0,15-1.6,20-3.7l2.2,9.4c-4.6,2.1-12.5,4.6-24,4.6
			c-22.2,0-35.5-14.8-35.5-36.5c0-21.8,12.8-38.9,33.8-38.9c23.5,0,29.8,20.7,29.8,34c0,2.7-0.3,4.8-0.4,6.1L794.5,228.5
			L794.5,228.5z M832.9,219.1c0.1-8.3-3.4-21.3-18.2-21.3c-13.3,0-19.1,12.2-20.1,21.3H832.9z"/>
		<path d="M867,190.1l9.5,36.7c2.1,8,4,15.5,5.4,22.9h0.4c1.6-7.3,4-15,6.4-22.9l11.8-36.7h11l11.2,36.1c2.7,8.6,4.8,16.2,6.4,23.5
			h0.4c1.2-7.3,3.1-14.9,5.5-23.4l10.3-36.2h13l-23.2,72.1h-11.9l-11-34.4c-2.5-8-4.6-15.2-6.4-23.7h-0.3c-1.8,8.6-4,16.1-6.6,23.8
			l-11.6,34.3h-11.9l-21.8-72.1H867z"/>
		<path d="M992.5,159.1c-3.4,12.4-9.8,28.5-14,35.3l-8.3,0.9c3.3-8.6,7.2-24.1,8.8-34.7L992.5,159.1z"/>
		<path d="M994.3,248.8c3.9,2.5,10.7,5.2,17.3,5.2c9.5,0,14-4.8,14-10.7c0-6.3-3.7-9.7-13.4-13.3c-13-4.6-19.1-11.8-19.1-20.4
			c0-11.6,9.4-21.2,24.9-21.2c7.3,0,13.7,2.1,17.7,4.5l-3.3,9.5c-2.8-1.8-8-4.2-14.8-4.2c-7.7,0-12.1,4.5-12.1,9.8
			c0,6,4.3,8.6,13.7,12.2c12.5,4.8,18.9,11,18.9,21.8c0,12.7-9.8,21.8-27,21.8c-7.9,0-15.2-2.1-20.3-5.1L994.3,248.8z"/>
	</g>
	<g>
		<path d="M448.1,332.8c6.3-1,14.5-1.9,24.9-1.9c12.8,0,22.2,3,28.2,8.3c5.5,4.8,8.8,12.1,8.8,21c0,9.1-2.7,16.2-7.7,21.5
			c-6.9,7.3-18,11-30.7,11c-3.9,0-7.5-0.1-10.4-0.9V432h-13L448.1,332.8L448.1,332.8z M461.1,381.2c2.8,0.7,6.4,1,10.7,1
			c15.6,0,25.2-7.6,25.2-21.5c0-13.3-9.4-19.7-23.7-19.7c-5.7,0-10,0.4-12.2,1V381.2z"/>
		<path d="M524.5,382.4c0-8.5-0.1-15.8-0.6-22.5h11.5l0.4,14.2h0.6c3.3-9.7,11.2-15.8,20-15.8c1.5,0,2.5,0.1,3.7,0.4v12.4
			c-1.3-0.3-2.7-0.4-4.5-0.4c-9.2,0-15.8,7-17.6,16.8c-0.3,1.8-0.6,3.9-0.6,6.1V432h-13L524.5,382.4L524.5,382.4z"/>
		<path d="M637,395.4c0,26.7-18.5,38.3-35.9,38.3c-19.5,0-34.6-14.3-34.6-37.1c0-24.1,15.8-38.3,35.8-38.3
			C623,358.3,637,373.3,637,395.4z M579.8,396.1c0,15.8,9.1,27.7,21.9,27.7c12.5,0,21.9-11.8,21.9-28c0-12.2-6.1-27.7-21.6-27.7
			C586.5,368.1,579.8,382.4,579.8,396.1z"/>
		<path d="M654.9,432.1V370h-10.1v-10h10.1v-3.4c0-10.1,2.2-19.4,8.3-25.2c4.9-4.8,11.5-6.7,17.6-6.7c4.6,0,8.6,1,11.2,2.1
			l-1.8,10.1c-1.9-0.9-4.6-1.6-8.3-1.6c-11.2,0-14,9.8-14,20.9v3.9h17.4v10h-17.4v62.1L654.9,432.1L654.9,432.1z"/>
		<path d="M716,339.7c0.1,4.5-3.1,8-8.3,8c-4.6,0-7.9-3.6-7.9-8c0-4.6,3.4-8.2,8.2-8.2S716,335.1,716,339.7z M701.4,432.1V360h13.1
			v72.1H701.4z"/>
		<path d="M736.2,326.3h13.1v105.8h-13.1V326.3z"/>
		<path d="M778.7,398.4c0.3,17.7,11.6,25,24.7,25c9.4,0,15-1.6,20-3.7l2.2,9.4c-4.6,2.1-12.5,4.6-24,4.6
			c-22.2,0-35.5-14.8-35.5-36.5c0-21.8,12.8-38.9,33.8-38.9c23.5,0,29.8,20.7,29.8,34c0,2.7-0.3,4.8-0.4,6.1H778.7z M817.1,389
			c0.1-8.3-3.4-21.3-18.2-21.3c-13.3,0-19.1,12.2-20.1,21.3H817.1z"/>
	</g>
</g>
</svg>
