<?xml version="1.0" encoding="utf-8"?>
<!-- Generator: Adobe Illustrator 23.0.3, SVG Export Plug-In . SVG Version: 6.00 Build 0)  -->
<svg version="1.1" id="Layer_1" xmlns="http://www.w3.org/2000/svg" xmlns:xlink="http://www.w3.org/1999/xlink" x="0px" y="0px"
	 viewBox="0 0 1920 312" style="enable-background:new 0 0 1920 312;" xml:space="preserve">
<style type="text/css">
	.st0{opacity:0.39;}
	.st1{fill:#FFFFFF;}
	.st2{fill:#CECACA;}
	.st3{fill:#49C949;}
	.st4{fill:#757575;stroke:#757575;stroke-width:3;stroke-miterlimit:10;}
</style>
<g id="Layer_1_1_" class="st0">
</g>
<g>
	<g>
		<circle class="st1" cx="432.4" cy="146.1" r="84.5"/>
		<path class="st2" d="M432.4,232.1c-47.4,0-86-38.6-86-86s38.6-86,86-86s86,38.6,86,86S479.8,232.1,432.4,232.1z M432.4,63.1
			c-45.8,0-83,37.2-83,83s37.2,83,83,83s83-37.2,83-83S478.1,63.1,432.4,63.1z"/>
	</g>
	<g>
		<circle class="st3" cx="431.1" cy="144.9" r="84.5"/>
		<path class="st4" d="M431.1,230.9c-47.4,0-86-38.6-86-86s38.6-86,86-86s86,38.6,86,86S478.6,230.9,431.1,230.9z M431.1,61.9
			c-45.8,0-83,37.2-83,83s37.2,83,83,83s83-37.2,83-83S476.9,61.9,431.1,61.9z"/>
	</g>
	<g>
		<g>
			<g>
				<circle class="st1" cx="429.3" cy="93" r="12.1"/>
				<path d="M429.3,108.1c-8.3,0-15.1-6.8-15.1-15.1s6.8-15.1,15.1-15.1c8.3,0,15.1,6.8,15.1,15.1S437.7,108.1,429.3,108.1z
					 M429.3,83.9c-5,0-9.1,4.1-9.1,9.1c0,5,4.1,9.1,9.1,9.1c5,0,9.1-4.1,9.1-9.1C438.4,88,434.3,83.9,429.3,83.9z"/>
			</g>
			<path d="M429.3,134.6c-1.7,0-3-1.4-3-3v-26.6c0-1.7,1.4-3,3-3c1.7,0,3,1.4,3,3v26.6C432.4,133.3,431,134.6,429.3,134.6z"/>
			<path d="M440.8,146.1c-0.8,0-1.5-0.3-2.1-0.9l-11.5-11.5c-1.2-1.2-1.2-3.1,0-4.3c1.2-1.2,3.1-1.2,4.3,0l11.5,11.5
				c1.2,1.2,1.2,3.1,0,4.3C442.3,145.8,441.6,146.1,440.8,146.1z"/>
		</g>
		<g>
			<g>
				<circle class="st1" cx="396.1" cy="126.2" r="12.1"/>
				<path d="M396.1,141.3c-8.3,0-15.1-6.8-15.1-15.1s6.8-15.1,15.1-15.1c8.3,0,15.1,6.8,15.1,15.1S404.5,141.3,396.1,141.3z
					 M396.1,117.1c-5,0-9.1,4.1-9.1,9.1s4.1,9.1,9.1,9.1s9.1-4.1,9.1-9.1S401.1,117.1,396.1,117.1z"/>
			</g>
			<path d="M396.1,167.8c-1.7,0-3-1.4-3-3v-26.6c0-1.7,1.4-3,3-3c1.7,0,3,1.4,3,3v26.6C399.2,166.5,397.8,167.8,396.1,167.8z"/>
			<path d="M384.7,179.9c-0.7,0-1.5-0.3-2.1-0.8c-1.2-1.1-1.3-3.1-0.1-4.3l11.5-12.1c1.1-1.2,3.1-1.3,4.3-0.1
				c1.2,1.1,1.3,3.1,0.1,4.3L386.8,179C386.3,179.6,385.5,179.9,384.7,179.9z"/>
		</g>
		<g>
			<circle class="st1" cx="419.1" cy="158.2" r="12.1"/>
			<path d="M419.1,173.3c-8.3,0-15.1-6.8-15.1-15.1c0-8.3,6.8-15.1,15.1-15.1c8.3,0,15.1,6.8,15.1,15.1
				C434.2,166.5,427.4,173.3,419.1,173.3z M419.1,149.1c-5,0-9.1,4.1-9.1,9.1c0,5,4.1,9.1,9.1,9.1s9.1-4.1,9.1-9.1
				C428.1,153.2,424.1,149.1,419.1,149.1z"/>
		</g>
		<path d="M419.1,220.4c-1.7,0-3-1.4-3-3v-47.7c0-1.7,1.4-3,3-3c1.7,0,3,1.4,3,3v47.7C422.1,219,420.7,220.4,419.1,220.4z"/>
		<g>
			<g>
				<circle class="st1" cx="466.2" cy="119.5" r="12.1"/>
				<path d="M466.2,134.6c-8.3,0-15.1-6.8-15.1-15.1s6.8-15.1,15.1-15.1s15.1,6.8,15.1,15.1S474.5,134.6,466.2,134.6z M466.2,110.5
					c-5,0-9.1,4.1-9.1,9.1c0,5,4.1,9.1,9.1,9.1s9.1-4.1,9.1-9.1C475.2,114.5,471.2,110.5,466.2,110.5z"/>
			</g>
			<path d="M466.2,161.2c-1.7,0-3-1.4-3-3v-26.6c0-1.7,1.4-3,3-3c1.7,0,3,1.4,3,3v26.6C469.2,159.8,467.8,161.2,466.2,161.2z"/>
			<path d="M454.7,172.7c-0.8,0-1.5-0.3-2.1-0.9c-1.2-1.2-1.2-3.1,0-4.3L464,156c1.2-1.2,3.1-1.2,4.3,0c1.2,1.2,1.2,3.1,0,4.3
				l-11.5,11.5C456.2,172.4,455.5,172.7,454.7,172.7z"/>
		</g>
		<path d="M454.7,192c-1.7,0-3-1.4-3-3v-19.3c0-1.7,1.4-3,3-3c1.7,0,3,1.4,3,3V189C457.7,190.6,456.4,192,454.7,192z"/>
		<path d="M440.8,180.5c-1.7,0-3-1.4-3-3v-34.4c0-1.7,1.4-3,3-3c1.7,0,3,1.4,3,3v34.4C443.8,179.2,442.5,180.5,440.8,180.5z"/>
		<path d="M394.9,190.2c-0.8,0-1.5-0.3-2.1-0.9L382.5,179c-1.2-1.2-1.2-3.1,0-4.3c1.2-1.2,3.1-1.2,4.3,0l10.3,10.3
			c1.2,1.2,1.2,3.1,0,4.3C396.5,189.9,395.7,190.2,394.9,190.2z"/>
		<path d="M441.4,204.7c-0.8,0-1.6-0.3-2.2-0.9c-1.1-1.2-1.1-3.1,0.1-4.3l13.3-12.7c1.2-1.1,3.1-1.1,4.3,0.1
			c1.1,1.2,1.1,3.1-0.1,4.3l-13.3,12.7C442.9,204.4,442.2,204.7,441.4,204.7z"/>
		<path d="M407,201.6c-0.7,0-1.5-0.3-2.1-0.8l-12.1-11.5c-1.2-1.1-1.3-3.1-0.1-4.3c1.1-1.2,3.1-1.3,4.3-0.1l12.1,11.5
			c1.2,1.1,1.3,3.1,0.1,4.3C408.6,201.3,407.8,201.6,407,201.6z"/>
		<path d="M407,216.1c-1.7,0-3-1.4-3-3v-14.5c0-1.7,1.4-3,3-3c1.7,0,3,1.4,3,3v14.5C410,214.8,408.7,216.1,407,216.1z"/>
		<path d="M441.4,216.1c-1.7,0-3-1.4-3-3v-11.5c0-1.7,1.4-3,3-3c1.7,0,3,1.4,3,3v11.5C444.4,214.8,443.1,216.1,441.4,216.1z"/>
		<path d="M429.3,220.4c-1.7,0-3-1.4-3-3v-29.6l12.4-12.4c1.2-1.2,3.1-1.2,4.3,0c1.2,1.2,1.2,3.1,0,4.3l-10.6,10.6v27.1
			C432.4,219,431,220.4,429.3,220.4z"/>
	</g>
</g>
<path d="M604.6,168.1l-10.4,31.6h-13.4l34.1-100.4h15.6l34.3,100.4h-13.9l-10.7-31.6H604.6z M637.5,158l-9.8-28.9
	c-2.2-6.6-3.7-12.5-5.2-18.3h-0.3c-1.5,6-3.1,12.1-5.1,18.2l-9.8,29.1H637.5z"/>
<path d="M678.7,147.1c0-7.5-0.1-13.6-0.6-19.5h11.6l0.7,11.9h0.3c3.6-6.9,11.9-13.6,23.8-13.6c10,0,25.5,6,25.5,30.7v43.1h-13.1
	v-41.6c0-11.6-4.3-21.3-16.7-21.3c-8.6,0-15.3,6.1-17.6,13.4c-0.6,1.6-0.9,3.9-0.9,6.1v43.4h-13.1V147.1z"/>
<path d="M823.6,93.9v87.2c0,6.4,0.1,13.7,0.6,18.6h-11.8l-0.6-12.5h-0.3c-4,8-12.8,14.2-24.6,14.2c-17.4,0-30.8-14.8-30.8-36.7
	c-0.1-24,14.8-38.7,32.3-38.7c11,0,18.5,5.2,21.8,11h0.3V93.9H823.6z M810.5,157c0-1.6-0.1-3.9-0.6-5.5c-1.9-8.3-9.1-15.2-18.9-15.2
	c-13.6,0-21.6,11.9-21.6,27.9c0,14.6,7.2,26.7,21.3,26.7c8.8,0,16.8-5.8,19.2-15.6c0.4-1.8,0.6-3.6,0.6-5.7V157z"/>
<path d="M845.4,150.1c0-8.5-0.1-15.8-0.6-22.5h11.5l0.4,14.2h0.6c3.3-9.7,11.2-15.8,20-15.8c1.5,0,2.5,0.1,3.7,0.4v12.4
	c-1.3-0.3-2.7-0.4-4.5-0.4c-9.2,0-15.8,7-17.6,16.8c-0.3,1.8-0.6,3.9-0.6,6.1v38.4h-13V150.1z"/>
<path d="M899.9,166.1c0.3,17.7,11.6,25,24.7,25c9.4,0,15-1.6,20-3.7l2.2,9.4c-4.6,2.1-12.5,4.6-24,4.6c-22.2,0-35.5-14.8-35.5-36.5
	c0-21.8,12.8-38.9,33.8-38.9c23.5,0,29.8,20.7,29.8,34c0,2.7-0.3,4.8-0.4,6.1H899.9z M938.4,156.7c0.1-8.3-3.4-21.3-18.2-21.3
	c-13.3,0-19.1,12.2-20.1,21.3H938.4z"/>
<path d="M972.5,127.6l9.5,36.7c2.1,8,4,15.5,5.4,22.9h0.4c1.6-7.3,4-15,6.4-22.9l11.8-36.7h11l11.2,36.1c2.7,8.6,4.8,16.2,6.4,23.5
	h0.4c1.2-7.3,3.1-14.9,5.5-23.4l10.3-36.2h13l-23.2,72.1h-11.9l-11-34.4c-2.5-8-4.6-15.2-6.4-23.7h-0.3c-1.8,8.6-4,16.1-6.6,23.8
	l-11.6,34.3h-11.9l-21.8-72.1H972.5z"/>
<path d="M1097.9,96.6c-3.4,12.4-9.8,28.5-14,35.3l-8.3,0.9c3.3-8.6,7.2-24.1,8.8-34.7L1097.9,96.6z"/>
<path d="M1099.7,186.3c3.9,2.5,10.7,5.2,17.3,5.2c9.5,0,14-4.8,14-10.7c0-6.3-3.7-9.7-13.4-13.3c-13-4.6-19.1-11.8-19.1-20.4
	c0-11.6,9.4-21.2,24.9-21.2c7.3,0,13.7,2.1,17.7,4.5l-3.3,9.5c-2.8-1.8-8-4.2-14.8-4.2c-7.7,0-12.1,4.5-12.1,9.8
	c0,6,4.3,8.6,13.7,12.2c12.5,4.8,18.9,11,18.9,21.8c0,12.7-9.8,21.8-27,21.8c-7.9,0-15.2-2.1-20.3-5.1L1099.7,186.3z"/>
<path d="M1192.6,100.5c6.3-1,14.5-1.9,24.9-1.9c12.8,0,22.2,3,28.2,8.3c5.5,4.8,8.8,12.1,8.8,21c0,9.1-2.7,16.2-7.7,21.5
	c-6.9,7.3-18,11-30.7,11c-3.9,0-7.5-0.1-10.4-0.9v40.2h-13V100.5z M1205.5,148.9c2.8,0.7,6.4,1,10.7,1c15.6,0,25.2-7.6,25.2-21.5
	c0-13.3-9.4-19.7-23.7-19.7c-5.7,0-10,0.4-12.2,1V148.9z"/>
<path d="M1269,150.1c0-8.5-0.1-15.8-0.6-22.5h11.5l0.4,14.2h0.6c3.3-9.7,11.2-15.8,20-15.8c1.5,0,2.5,0.1,3.7,0.4v12.4
	c-1.3-0.3-2.7-0.4-4.5-0.4c-9.2,0-15.8,7-17.6,16.8c-0.3,1.8-0.6,3.9-0.6,6.1v38.4h-13V150.1z"/>
<path d="M1381.5,163.1c0,26.7-18.5,38.3-35.9,38.3c-19.5,0-34.6-14.3-34.6-37.1c0-24.1,15.8-38.3,35.8-38.3
	C1367.5,126,1381.5,141,1381.5,163.1z M1324.3,163.8c0,15.8,9.1,27.7,21.9,27.7c12.5,0,21.9-11.8,21.9-28c0-12.2-6.1-27.7-21.6-27.7
	C1331,135.8,1324.3,150.1,1324.3,163.8z"/>
<path d="M1399.4,199.7v-62.1h-10.1v-10h10.1v-3.4c0-10.1,2.2-19.4,8.3-25.2c4.9-4.8,11.5-6.7,17.6-6.7c4.6,0,8.6,1,11.2,2.1
	l-1.8,10.1c-1.9-0.9-4.6-1.6-8.3-1.6c-11.2,0-14,9.8-14,20.9v3.9h17.4v10h-17.4v62.1H1399.4z"/>
<path d="M1459.4,107.4c0.1,4.5-3.1,8-8.3,8c-4.6,0-7.9-3.6-7.9-8c0-4.6,3.4-8.2,8.2-8.2C1456.3,99.2,1459.4,102.7,1459.4,107.4z
	 M1444.8,199.7v-72.1h13.1v72.1H1444.8z"/>
<path d="M1479.7,93.9h13.1v105.8h-13.1V93.9z"/>
<path d="M1522.2,166.1c0.3,17.7,11.6,25,24.7,25c9.4,0,15-1.6,20-3.7l2.2,9.4c-4.6,2.1-12.5,4.6-24,4.6c-22.2,0-35.5-14.8-35.5-36.5
	c0-21.8,12.8-38.9,33.8-38.9c23.5,0,29.8,20.7,29.8,34c0,2.7-0.3,4.8-0.4,6.1H1522.2z M1560.6,156.7c0.1-8.3-3.4-21.3-18.2-21.3
	c-13.3,0-19.1,12.2-20.1,21.3H1560.6z"/>
</svg>
